<svg id="Capa_1" enable-background="new 0 0 512 512" height="512" viewBox="0 0 512 512" width="512" xmlns="http://www.w3.org/2000/svg"><g><g><g><g><path d="m427.598 430.851c0-13.342 6.863-25.075 17.246-31.881h-357.667c-17.607 0-31.881 14.273-31.881 31.881 0 17.607 14.273 31.88 31.881 31.88h349.718c2.547 0 3.756-3.07 1.949-4.865-6.945-6.899-11.246-16.453-11.246-27.015z" fill="#e7ecf6"/></g></g></g><g><g><g><path d="m427.598 430.85c0-13.342 6.863-25.075 17.246-31.881h-26.095c-10.383 6.806-17.246 18.539-17.246 31.881v.122c.02 6.312-4.955 11.493-11.267 11.493h-332.748c4.644 11.862 16.181 20.266 29.689 20.266h331.572 18.146c2.547 0 3.755-3.07 1.949-4.865-6.944-6.899-11.246-16.453-11.246-27.016z" fill="#d8e2f1"/></g></g></g><g><path d="m390.119 503.781-18.795-15.912c-2.608-2.208-6.429-2.208-9.037 0l-18.795 15.912c-1.948 1.649-4.934.264-4.934-2.287v-116.603h56.494v116.602c.001 2.552-2.985 3.937-4.933 2.288z" fill="#ecbe6b"/></g><g><g><path d="m374.19 384.891v105.404l15.929 13.485c1.948 1.649 4.934.265 4.934-2.287v-116.602z" fill="#eab14d"/></g></g><g><path d="m304.961 443.978-18.795-15.912c-2.608-2.208-6.429-2.208-9.037 0l-18.795 15.912c-1.948 1.649-4.934.265-4.934-2.287v-50.306h56.494v50.306c0 2.552-2.985 3.936-4.933 2.287z" fill="#e28086"/></g><g><g><path d="m289.032 391.385v39.108l15.929 13.485c1.948 1.649 4.934.265 4.934-2.287v-50.306z" fill="#dd636e"/></g></g><g><g><g><path d="m446.248 7.493h-364.812c-14.437 0-26.14 11.703-26.14 26.14v397.217c0-17.607 14.273-31.881 31.881-31.881h359.071c5.775 0 10.456-4.681 10.456-10.456v-370.564c0-5.775-4.681-10.456-10.456-10.456z" fill="#9dc6fb"/></g></g></g><g><path d="m446.248 7.493h-43.397v280.104c0 31.767-25.752 57.519-57.519 57.519h-290.036v85.734c0-17.607 14.273-31.881 31.881-31.881h359.072c5.775 0 10.456-4.681 10.456-10.456v-370.564c-.001-5.775-4.682-10.456-10.457-10.456z" fill="#80b4fb"/></g><g><circle cx="279.625" cy="237.525" fill="#b1e4f9" r="95.406"/></g><g><path d="m55.296 158.346v158.358c25.435-17.136 42.165-46.203 42.165-79.179s-16.73-62.043-42.165-79.179z" fill="#b1e4f9"/></g><g><path d="m456.704 282.353c4.138 0 7.493-3.355 7.493-7.493v-256.911c0-9.897-8.052-17.949-17.949-17.949h-364.812c-18.545 0-33.633 15.088-33.633 33.632v28.551c0 4.138 3.355 7.493 7.493 7.493s7.493-3.355 7.493-7.493v-28.551c0-10.282 8.365-18.647 18.647-18.647h33.329v376.492h-27.588c-8.786-.017-17.509 3.021-24.388 8.483v-79.376c26.474-19.376 42.165-50.123 42.165-83.059s-15.692-63.683-42.165-83.059v-55.86c0-4.138-3.355-7.493-7.493-7.493s-7.493 3.355-7.493 7.493v332.244c0 21.71 17.663 39.373 39.373 39.373h243.889v31.27c0 4.132 2.329 7.778 6.077 9.516 3.751 1.738 8.037 1.16 11.191-1.51l18.472-15.639 18.473 15.639c3.167 2.684 7.475 3.237 11.19 1.51 3.748-1.738 6.077-5.384 6.077-9.516v-31.27h34.349c4.19 0 7.927-2.498 9.52-6.363 1.605-3.893.706-8.333-2.291-11.31-5.825-5.788-9.034-13.495-9.034-21.701 0-9.669 4.525-18.661 12.197-24.441 9.412-.543 16.909-8.35 16.909-17.896v-78.167c0-4.138-3.355-7.493-7.493-7.493s-7.493 3.355-7.493 7.493v78.167c0 1.634-1.329 2.963-2.963 2.963h-1.404-315.092v-376.49h316.498c1.634 0 2.963 1.329 2.963 2.963v256.912c0 4.139 3.355 7.493 7.493 7.493zm-366.735-44.829c0 24.244-9.957 47.099-27.18 63.554v-127.107c17.223 16.454 27.18 39.309 27.18 63.553zm-2.792 217.714c-13.448 0-24.388-10.94-24.388-24.388s10.94-24.388 24.388-24.388h158.731v35.229c0 4.132 2.329 7.778 6.077 9.517 3.715 1.728 8.023 1.174 11.19-1.511l18.473-15.639 18.472 15.639c3.153 2.669 7.441 3.248 11.19 1.51 3.748-1.738 6.077-5.384 6.077-9.516v-35.229h13.678v48.776zm173.715-48.776h41.509v25.532l-11.395-9.647c-5.424-4.592-13.296-4.592-18.72 0l-11.395 9.647v-25.532zm115.273 75.688c-5.424-4.592-13.296-4.592-18.72 0l-11.395 9.647v-85.335h41.509v85.335zm50.997-26.912h-24.617v-48.776h24.62c-4.551 7.18-7.059 15.596-7.059 24.389-.001 8.772 2.46 17.162 7.056 24.387z"/><path d="m223.522 323.796c16.695 10.877 36.095 16.627 56.104 16.627 56.738 0 102.898-46.16 102.898-102.898s-46.16-102.898-102.898-102.898-102.898 46.16-102.898 102.898c0 21.59 6.614 42.257 19.128 59.767 2.407 3.367 7.086 4.146 10.453 1.74s4.145-7.086 1.739-10.453c-10.686-14.953-16.334-32.607-16.334-51.054 0-48.476 39.438-87.913 87.913-87.913s87.913 39.438 87.913 87.913-39.438 87.913-87.913 87.913c-17.097 0-33.668-4.909-47.923-14.197-3.469-2.259-8.109-1.28-10.368 2.187-2.261 3.467-1.282 8.109 2.186 10.368z"/><path d="m229.097 227.561h98.472c4.138 0 7.493-3.355 7.493-7.493s-3.355-7.493-7.493-7.493h-98.472c-4.138 0-7.493 3.355-7.493 7.493s3.355 7.493 7.493 7.493z"/><path d="m229.097 266.411h98.472c4.138 0 7.493-3.355 7.493-7.493s-3.355-7.493-7.493-7.493h-98.472c-4.138 0-7.493 3.355-7.493 7.493s3.355 7.493 7.493 7.493z"/><path d="m260.039 112.075 3.654-9.594h25.087l3.612 9.572c1.457 3.911 5.884 5.817 9.656 4.365 3.872-1.461 5.826-5.784 4.365-9.656l-21.851-57.9c-.026-.068-.053-.137-.08-.204-1.366-3.322-4.568-5.468-8.16-5.468-.002 0-.005 0-.007 0-3.595.003-6.798 2.155-8.159 5.482-.023.057-.045.114-.067.171l-22.051 57.898c-1.473 3.867.468 8.196 4.335 9.669 3.864 1.473 8.194-.468 9.666-4.335zm16.255-42.679 6.831 18.1h-13.724z"/><path d="m232.265 108.54v-58.725c0-4.138-3.355-7.493-7.493-7.493s-7.493 3.355-7.493 7.493v58.725c0 4.138 3.355 7.493 7.493 7.493 4.138-.001 7.493-3.355 7.493-7.493z"/><path d="m148.522 107.614c-.192 4.338 3.104 8.539 7.637 8.418.488-.002 11.999-.046 16.6-.126 17.327-.303 29.903-15.385 29.903-35.861 0-21.525-12.259-35.986-30.507-35.986h-16.14c-1.99 0-3.898.791-5.303 2.199-1.406 1.408-2.194 3.318-2.19 5.307v.043.002zm23.633-48.57c14.402 0 15.521 16.074 15.521 21.001 0 10.259-4.694 20.694-15.18 20.877-2.051.036-5.616.065-8.898.086-.021-6.715-.065-34.975-.077-41.964z"/><path d="m403.026 117.102h.019c4.129 0 7.482-3.342 7.492-7.474l.068-27.784 17.396-26.723c2.258-3.468 1.276-8.11-2.192-10.367-3.467-2.257-8.109-1.276-10.367 2.192l-12.334 18.948-12.475-19.105c-2.262-3.465-6.906-4.439-10.37-2.177-3.465 2.262-4.439 6.905-2.177 10.37l17.534 26.852-.068 27.758c-.01 4.137 3.336 7.499 7.474 7.51z"/><path d="m365.929 66.146c0-12.547-10.595-22.754-23.618-22.754h-15.606c-.003 0-.006 0-.01 0-.003 0-.006 0-.009 0-4.138 0-7.493 3.355-7.493 7.493v58.725c0 4.138 3.355 7.493 7.493 7.493s7.493-3.355 7.493-7.493v-16.222l18.633 21.171c1.481 1.683 3.549 2.542 5.627 2.542 1.758 0 3.524-.615 4.947-1.868 3.106-2.734 3.408-7.468.674-10.575l-14.764-16.775c9.624-2.876 16.633-11.532 16.633-21.737zm-23.618 7.769c-1.884 0-5.057.013-8.047.027-.015-2.913-.035-12.512-.043-15.566h8.09c4.679 0 8.633 3.558 8.633 7.769 0 4.212-3.953 7.77-8.633 7.77z"/></g></g></svg>